<svg id="Layer_1" data-name="Layer 1" xmlns="http://www.w3.org/2000/svg" viewBox="0 0 131 30"><defs><style>.cls-1{fill:#bf2228;}.cls-2{fill:#444545;}.cls-3{fill:#3a3e3d;}.cls-4{fill:#45b049;}.cls-5{fill:#bd222a;}</style></defs><path class="cls-1" d="M106,14.34V19.6A1.31,1.31,0,0,1,104.67,21a1.43,1.43,0,0,1-1.29-1.35,5.83,5.83,0,0,1-4,1.35,6.6,6.6,0,0,1-6.8-6.61,6.76,6.76,0,0,1,6.8-6.8A6.6,6.6,0,0,1,106,14.34Zm-2.64,0a4.06,4.06,0,0,0-4-4.17,4.23,4.23,0,0,0-4.17,4.17,4.06,4.06,0,0,0,4.17,4A3.9,3.9,0,0,0,103.38,14.34Z"/><path class="cls-1" d="M114.8,8.83a1.36,1.36,0,0,1-1.35,1.34,4.08,4.08,0,0,0-4.08,4.08h0v5.41a1.33,1.33,0,1,1-2.66,0V14.25a6.74,6.74,0,0,1,6.74-6.74,1.32,1.32,0,0,1,1.35,1.31Z"/><path class="cls-2" d="M82.5,24.17h-.77v2.2h-.59v-2.2h-.77v-.56H82.5Z"/><path class="cls-2" d="M85.92,23.61v2.76h-.6V25.23h-1v1.14h-.59V23.61h.59v1.06h1V23.61Z"/><path class="cls-2" d="M89,25.81v.56h-1.7V23.61H89v.55H87.93v.55h1v.54h-1v.56Z"/><path class="cls-2" d="M92.64,24.17v.6h1v.54h-1v1.06h-.59V23.62h1.64v.55Z"/><path class="cls-2" d="M96.39,25.84h-1.1l-.18.53h-.64l1.08-2.76h.56l1.12,2.76h-.65Zm-.91-.51h.72l-.36-1Z"/><path class="cls-2" d="M99.51,26.43a1.44,1.44,0,0,1,0-2.88,1.34,1.34,0,0,1,1.34,1.1h-.6a.77.77,0,0,0-.74-.53.87.87,0,0,0,0,1.74.75.75,0,0,0,.74-.57h.6a1.33,1.33,0,0,1-1.34,1.14Z"/><path class="cls-2" d="M103.92,24.17h-.77v2.2h-.59v-2.2h-.77v-.56h2.13Z"/><path class="cls-2" d="M104.86,25a1.47,1.47,0,1,1,1.47,1.44A1.42,1.42,0,0,1,104.86,25Zm2.33,0a.84.84,0,0,0-.86-.87.87.87,0,1,0,0,1.74h0a.84.84,0,0,0,.86-.87Z"/><path class="cls-2" d="M110,25.43h-.39v.94h-.59V23.61h1.11a.91.91,0,0,1,1,.91.87.87,0,0,1-.5.81l.61,1h-.67Zm-.39-.55h.48a.36.36,0,1,0,0-.72h-.48Z"/><path class="cls-2" d="M113.61,25.25v1.12H113V25.25l-1-1.63h.64l.63,1.1.64-1.1h.64Z"/><path class="cls-3" d="M28.57,18.53a6.77,6.77,0,1,1,0-8.6,1.16,1.16,0,0,1-.16,1.64,1.18,1.18,0,0,1-.4.21h0a1.15,1.15,0,0,1-1.23-.36,4.46,4.46,0,1,0,0,5.63A1.17,1.17,0,0,1,28,16.68h0a1.16,1.16,0,0,1,.77,1.45A1,1,0,0,1,28.57,18.53Z"/><path class="cls-1" d="M42,21H28.41L35.19,7.46ZM31.77,18.93h6.84l-3.42-6.85Z"/><path class="cls-3" d="M45.41,14.91l-.61.85v4.09A1.15,1.15,0,0,1,43.64,21h0a1.15,1.15,0,0,1-1.16-1.15V8.61a1.16,1.16,0,0,1,1.16-1.15h0A1.16,1.16,0,0,1,44.8,8.61v3.24l2.73-3.67A1.74,1.74,0,0,1,49,7.46h1.39a.27.27,0,0,1,.28.28.34.34,0,0,1-.05.17l-3.68,5,4.58,7.66a.28.28,0,0,1-.1.39.24.24,0,0,1-.15,0H50.05a1.78,1.78,0,0,1-1.53-.87Z"/><path class="cls-3" d="M62.93,17.46a.33.33,0,0,1,.22.42.36.36,0,0,1,0,.09,6.79,6.79,0,1,1,1.11-3.73,8.29,8.29,0,0,1-.08,1.11.34.34,0,0,1-.33.28H53.25a4.43,4.43,0,0,0,7.27,1.84,1.39,1.39,0,0,1,1.35-.33Zm-9.81-4.14h8.71A4.48,4.48,0,0,0,57.46,9.8,4.42,4.42,0,0,0,53.12,13.32Z"/><path class="cls-1" d="M78.75,25.24v.05a3.85,3.85,0,0,1-.48,1.78,3.61,3.61,0,0,1-1,1.08,3.89,3.89,0,0,1-2.29.71H69.17a3.67,3.67,0,0,1-2.73-1.05,3.84,3.84,0,0,1-.85-1.46,1.12,1.12,0,0,1,.74-1.4,1.18,1.18,0,0,1,.37-.05h.09a1.11,1.11,0,0,1,1,.76,1.51,1.51,0,0,0,.33.56,1.4,1.4,0,0,0,1,.33H75c1.18,0,1.41-.77,1.44-1.23A1.37,1.37,0,0,0,75,24.08H69.25a3.77,3.77,0,0,1-3.89-3.88,4.24,4.24,0,0,1,.88-2.54,6.76,6.76,0,0,1,4.4-10,6.89,6.89,0,0,1,5.21,1,4,4,0,0,1,2.32-1.12.48.48,0,0,1,.53.42V9.28a.55.55,0,0,1-.44.54,1.48,1.48,0,0,0-.76.38l0,0a6.8,6.8,0,0,1,1.31,4A6.89,6.89,0,0,1,75,20.36a7.06,7.06,0,0,1-2.93.64,6.86,6.86,0,0,1-4.26-1.49,1.89,1.89,0,0,0-.13.66,1.47,1.47,0,0,0,1.57,1.6H75a4,4,0,0,1,2.29.74A3.84,3.84,0,0,1,78.75,25.24Zm-11.12-11a4.38,4.38,0,0,0,.59,2.21,4.15,4.15,0,0,0,1,1.21,4.45,4.45,0,0,0,7.3-3.34v-.08a4.45,4.45,0,0,0-8.89,0Z"/><path class="cls-1" d="M91.77,14v5.85A1.14,1.14,0,0,1,90.63,21h0a1.15,1.15,0,0,1-1.15-1.14h0V14c0-2.34-2-4.21-3.67-4.21-2,0-3.55,2.18-3.6,4.08v6A1.14,1.14,0,0,1,81.07,21h0a1.14,1.14,0,0,1-1.14-1.14h0V2.28A1.14,1.14,0,0,1,81,1.14h0a1.14,1.14,0,0,1,1.14,1.14h0V9a5.35,5.35,0,0,1,3.6-1.44C88.61,7.51,91.77,10.28,91.77,14Z"/><path class="cls-4" d="M103.33,6c-.13-2.32,1-4,4-4.85,1.09,4.37-1,6.08-5.24,6.08,3.53-1.9,3.66-2.92,4.29-4.07A12.9,12.9,0,0,1,103.33,6Z"/><path class="cls-5" d="M102.15,6.15a2.88,2.88,0,0,1-.2,1,7.39,7.39,0,0,0-2.54-.45,7.65,7.65,0,0,0-2.72.49,2.84,2.84,0,1,1,5.45-1.09Z"/></svg>